<svg xmlns="http://www.w3.org/2000/svg" viewBox="0 0 900 1125">
  <rect width="900" height="1125" fill="#FFF1E6"/>
  <path d="M230 598c88-86 190-118 306-78 72 25 129 72 177 140 30 43 4 104-48 111l-352 48c-85 12-146-81-91-148 5-7 8-32 8-73Z" fill="#FFFFFF"/>
  <path d="M360 610c-58-55-123-8-82 48 39 55 113 9 82-48Zm0 0c58-55 123-8 82 48-39 55-113 9-82-48Z" fill="#F7BFD2"/>
  <text x="450" y="948" text-anchor="middle" font-family="Arial" font-size="52" font-weight="700" fill="#2B2B2B">Bow Sandals</text>
</svg>
